<?xml version="1.0" standalone="no"?><!DOCTYPE svg PUBLIC "-//W3C//DTD SVG 1.1//EN" "http://www.w3.org/Graphics/SVG/1.1/DTD/svg11.dtd"><svg t="1614161127075" class="icon" viewBox="0 0 1024 1024" version="1.1" xmlns="http://www.w3.org/2000/svg" p-id="9126" xmlns:xlink="http://www.w3.org/1999/xlink" width="200" height="200"><defs><style type="text/css"></style></defs><path d="M248.557714 560.896l311.68 0c8.374857 0 15.140571-11.465143 15.140571-25.563429 0-14.116571-6.765714-25.563429-15.140571-25.563429L248.557714 509.769143c-8.356571 0-15.122286 11.446857-15.122286 25.563429C233.435429 549.430857 240.201143 560.896 248.557714 560.896z" fill="#1296db" p-id="9127"></path><path d="M771.017143 625.938286 258.322286 625.938286c-13.732571 0-24.886857 11.428571-24.886857 25.563429 0 14.098286 11.136 25.563429 24.886857 25.563429l512.694857 0c13.750857 0 24.886857-11.483429 24.886857-25.563429C795.904 637.366857 784.768 625.938286 771.017143 625.938286z" fill="#1296db" p-id="9128"></path><path d="M771.017143 742.107429 258.322286 742.107429c-13.732571 0-24.886857 11.465143-24.886857 25.581714 0 14.098286 11.136 25.563429 24.886857 25.563429l512.694857 0c13.750857 0 24.886857-11.483429 24.886857-25.563429C795.904 753.572571 784.768 742.107429 771.017143 742.107429z" fill="#1296db" p-id="9129"></path><path d="M311.442286 324.608l-9.344 48.713143c-1.444571 8.813714 2.194286 17.846857 9.216 22.948571 6.564571 4.845714 17.28 5.650286 24.082286 2.011429l45.714286-22.692571 45.165714 22.582857c3.328 1.718857 7.021714 2.651429 10.715429 2.651429 4.845714 0 9.654857-1.590857 13.531429-4.461714 7.168-5.211429 10.806857-14.336 9.270857-23.277714l-8.996571-48.457143 35.748571-33.828571c6.290286-6.217143 8.594286-15.670857 5.869714-24.082286-2.688-8.576-9.746286-14.701714-18.304-15.981714l-49.92-8.923429-22.235429-45.385143c-3.821714-8.027429-11.995429-13.220571-20.809143-13.220571-8.832 0-16.786286 5.010286-20.772571 13.092571l-22.308571 45.568-49.572571 9.142857c-8.795429 1.334857-15.945143 7.460571-18.596571 15.981714-2.742857 8.448-0.365714 18.011429 6.107429 24.411429L311.442286 324.608zM355.894857 265.910857l25.234286-51.529143 25.270857 51.584 56.758857 10.093714-41.142857 38.966857 11.392 56.630857L381.165714 345.6l-51.602286 25.636571 10.770286-56.228571-42.185143-38.436571L355.894857 265.910857z" fill="#1296db" p-id="9130"></path><path d="M918.966857 244.955429 725.211429 48.237714C719.762286 42.678857 712.832 38.747429 705.371429 36.571429L180.443429 36.571429C130.870857 40.009143 91.428571 81.609143 91.428571 132.809143l0 757.741714C91.428571 943.963429 134.253714 987.428571 186.88 987.428571l650.166857 0c52.662857 0 95.488-43.465143 95.488-96.877714l-0.054857-608.512C933.394286 267.812571 928.585143 254.628571 918.966857 244.955429zM837.924571 866.102857c0 13.952-11.190857 25.344-24.941714 25.344L210.962286 891.446857c-13.750857 0-24.96-11.392-24.96-25.344L186.002286 157.257143c0-13.970286 11.209143-25.325714 24.96-25.325714l408.649143 0 0 213.613714c0 15.926857 12.763429 28.873143 28.452571 28.873143l188.16 0 1.718857 1.938286L837.942857 866.102857zM774.912 307.510857l-98.450286 0 0-111.030857L676.461714 131.072l173.805714 176.420571L774.912 307.492571z" fill="#1296db" p-id="9131"></path></svg>