<?xml version="1.0" standalone="no"?><!DOCTYPE svg PUBLIC "-//W3C//DTD SVG 1.1//EN" "http://www.w3.org/Graphics/SVG/1.1/DTD/svg11.dtd"><svg t="1614154710935" class="icon" viewBox="0 0 1152 1024" version="1.1" xmlns="http://www.w3.org/2000/svg" p-id="5012" xmlns:xlink="http://www.w3.org/1999/xlink" width="225" height="200"><defs><style type="text/css"></style></defs><path d="M1024.1107 320.003375H128.10845l70.397862-275.201463A77.057849 77.057849 0 0 1 262.514187 0h595.204838a64.799873 64.799873 0 0 1 57.599887 38.393925zM288.110137 703.996625a98.423808 98.423808 0 0 1 95.993813 95.993813v127.99775a95.993813 95.993813 0 1 1-192.005625 0v-127.99775A98.423808 98.423808 0 0 1 288.110137 703.996625z m575.998875 0a98.423808 98.423808 0 0 1 95.993813 95.993813v127.99775a95.993813 95.993813 0 1 1-192.005625 0v-127.99775A98.423808 98.423808 0 0 1 864.109012 703.996625z" fill="#4D7BFE" opacity=".58" p-id="5013"></path><path d="M64.118575 383.99325h1024a60.461882 60.461882 0 0 1 64.007875 64.007875v320.003375a60.461882 60.461882 0 0 1-64.007875 64.007875H64.118575A60.461882 60.461882 0 0 1 0.1107 768.0045V448.001125a60.461882 60.461882 0 0 1 64.007875-64.007875zM288.110137 703.996625a95.993813 95.993813 0 1 0-95.993812-95.993813A98.423808 98.423808 0 0 0 288.110137 703.996625z m575.998875 0a95.993813 95.993813 0 1 0-95.993812-95.993813A98.423808 98.423808 0 0 0 864.109012 703.996625z" fill="#4D7BFE" p-id="5014"></path></svg>