<?xml version="1.0" standalone="no"?><!DOCTYPE svg PUBLIC "-//W3C//DTD SVG 1.1//EN" "http://www.w3.org/Graphics/SVG/1.1/DTD/svg11.dtd"><svg t="1610608639482" class="icon" viewBox="0 0 1024 1024" version="1.1" xmlns="http://www.w3.org/2000/svg" p-id="2615" xmlns:xlink="http://www.w3.org/1999/xlink" width="200" height="200"><defs><style type="text/css"></style></defs><path d="M512.8 13.6C233.6 13.6 8 208.8 8 448.8c0 124.8 60.8 237.6 159.2 316.8L512 1022.4V884c278.4 0 504.8-195.2 504.8-435.2S791.2 13.6 512.8 13.6zM764 526.4c-36.8 0-66.4-29.6-66.4-66.4 0-36.8 29.6-66.4 66.4-66.4s66.4 29.6 66.4 66.4c-0.8 36.8-30.4 66.4-66.4 66.4z m-251.2 0c-36.8 0-66.4-29.6-66.4-66.4 0-36.8 29.6-66.4 66.4-66.4s66.4 29.6 66.4 66.4c-0.8 36.8-30.4 66.4-66.4 66.4z m-250.4 0c-36.8 0-66.4-29.6-66.4-66.4 0-36.8 29.6-66.4 66.4-66.4 36.8 0 66.4 29.6 66.4 66.4 0 36.8-29.6 66.4-66.4 66.4z m0 0" fill="#e6e6e6" p-id="2616"></path></svg>