<?xml version="1.0" standalone="no"?><!DOCTYPE svg PUBLIC "-//W3C//DTD SVG 1.1//EN" "http://www.w3.org/Graphics/SVG/1.1/DTD/svg11.dtd"><svg t="1614154615156" class="icon" viewBox="0 0 1084 1024" version="1.1" xmlns="http://www.w3.org/2000/svg" p-id="3508" xmlns:xlink="http://www.w3.org/1999/xlink" width="211.71875" height="200"><defs><style type="text/css"></style></defs><path d="M951.717647 72.282353h66.258824c36.141176 0 66.258824 30.117647 66.258823 72.282353v210.823529h-1084.235294v-210.823529c0-42.164706 30.117647-72.282353 66.258824-72.282353h66.258823v108.423529c0 60.235294 48.188235 108.423529 102.4 108.42353 54.211765 0 102.4-48.188235 102.4-108.42353v-108.423529h409.6v108.423529c0 60.235294 48.188235 108.423529 102.4 108.42353 54.211765 0 102.4-48.188235 102.4-108.42353v-108.423529z" fill="#5B81FE" p-id="3509"></path><path d="M945.694118 767.036235c0 24.094118-18.070588 42.164706-36.141177 42.164706h-102.4c-18.070588 0-36.141176-18.070588-36.141176-42.164706v-90.352941c0-24.094118 18.070588-42.164706 36.141176-42.164706h102.4c18.070588 0 36.141176 18.070588 36.141177 42.164706v90.352941z m-313.22353 0c0 24.094118-18.070588 42.164706-36.141176 42.164706h-102.4c-18.070588 0-36.141176-18.070588-36.141177-42.164706v-90.352941c0-24.094118 18.070588-42.164706 36.141177-42.164706h102.4c18.070588 0 36.141176 18.070588 36.141176 42.164706v90.352941z m-319.247059 0c0 24.094118-18.070588 42.164706-36.141176 42.164706h-102.4c-18.070588 0-36.141176-18.070588-36.141177-42.164706v-90.352941c0-24.094118 18.070588-42.164706 36.141177-42.164706h102.4c18.070588 0 36.141176 18.070588 36.141176 42.164706v90.352941z m-313.223529-343.341176v536.094117c0 36.141176 30.117647 66.258824 66.258824 66.258824h945.694117c36.141176 0 66.258824-30.117647 66.258824-66.258824v-536.094117H0z" fill="#5B81FE" p-id="3510"></path><path d="M210.823529 210.823529h66.258824v-210.823529h-66.258824zM807.152941 210.823529h66.258824v-210.823529h-66.258824z" fill="#5B81FE" p-id="3511"></path></svg>