<?xml version="1.0" standalone="no"?><!DOCTYPE svg PUBLIC "-//W3C//DTD SVG 1.1//EN" "http://www.w3.org/Graphics/SVG/1.1/DTD/svg11.dtd"><svg t="1614155793108" class="icon" viewBox="0 0 1171 1024" version="1.1" xmlns="http://www.w3.org/2000/svg" p-id="6712" xmlns:xlink="http://www.w3.org/1999/xlink" width="228.7109375" height="200"><defs><style type="text/css"></style></defs><path d="M424.501685 968.086817c-27.301502-5.965582-43.796499-11.050996-49.566489-15.370338-6.976145-5.101714-12.224553-20.276459-15.712625-45.866524a209.105057 209.105057 0 0 1-1.776635-21.61301v-10.170828c-3.797761 9.078768-12.273451 14.669464-23.487442 14.669464h-77.030985c-15.419236 0-25.687861-10.464218-25.687861-26.160544V706.595474c0-15.696326 10.284924-26.160544 25.687861-26.160543h77.079883c11.23029 0 19.70598 5.558097 23.487442 14.669463a29.730113 29.730113 0 0 1 2.200419 11.523679v130.362635q1.466946-13.512206 3.862959-28.377262 5.688492-34.571036 28.572856-52.369986a175.91947 175.91947 0 0 1 53.90213-28.067574q30.968868-10.464218 63.893664-18.744315c1.352851-0.358587 2.673102-0.733473 4.009654-1.10836V628.032346c0-15.696326 10.268625-26.160544 25.687861-26.160544H617.665925c-0.146695-3.928156-0.342287-7.970409-0.619378-12.159356-1.271354-14.946554-6.193774-26.53543-14.669464-34.571036q-14.050086-13.186218-29.110736-25.247777a57.047915 57.047915 0 0 1-13.300313-18.271632q-3.471773-7.155438-6.519762-14.457572h-13.772997c-15.419236 0-25.687861-10.464218-25.687861-26.160544v-32.321719c-4.303043-5.590696-8.051906-13.463308-10.969499-23.764531-3.259881-10.692409-4.38454-20.162363-3.422875-28.491359a83.322555 83.322555 0 0 1 5.232109-21.987896 71.472888 71.472888 0 0 1 11.409583-19.673381 440.083915 440.083915 0 0 1 3.846659-71.049103c0.733473-5.75369 1.62994-11.621475 2.722001-17.587057-5.623294-4.596432-8.883175-11.76817-8.883175-20.586148V157.028461c0-15.696326 10.268625-26.160544 25.687861-26.160544h38.156905a167.671972 167.671972 0 0 1 25.655262-23.063657 207.703309 207.703309 0 0 1 91.374461-38.890379 284.326808 284.326808 0 0 1 45.002655-3.716264 209.235453 209.235453 0 0 1 52.875267 6.519762l0.766072 0.211892V0H78.986913l0.651976 887.078778H0v107.282679h583.844661q-32.435814-4.074851-64.04036-9.04617-54.342214-8.296397-95.302616-17.22847zM231.239648 157.028461c0-15.696326 10.284924-26.160544 25.687861-26.160544h77.079883c11.23029 0 19.70598 5.574396 23.487442 14.669464a29.730113 29.730113 0 0 1 2.200419 11.523679v78.481631a29.730113 29.730113 0 0 1-2.200419 11.523679c-3.797761 9.078768-12.273451 14.669464-23.487442 14.669464h-77.079883c-15.419236 0-25.687861-10.464218-25.687861-26.160544z m0 235.510092c0-15.696326 10.284924-26.160544 25.687861-26.160544h77.079883c11.23029 0 19.70598 5.558097 23.487442 14.669464a29.730113 29.730113 0 0 1 2.200419 11.523679V471.069083a29.730113 29.730113 0 0 1-2.200419 11.523679c-3.797761 9.078768-12.273451 14.669464-23.487442 14.669463h-77.079883c-15.419236 0-25.687861-10.464218-25.687861-26.160543z" fill="#1296db" p-id="6713"></path><path d="M1137.160537 824.08158a177.663507 177.663507 0 0 0-6.959845-34.619934 78.644626 78.644626 0 0 0-28.214269-38.124307 193.147941 193.147941 0 0 0-45.002655-23.829729 508.785904 508.785904 0 0 0-52.484082-16.299404 448.412911 448.412911 0 0 1-50.05547-15.680027q-24.88919-10.12193-39.558655-22.607274t-21.189225-26.633226a81.497021 81.497021 0 0 1-7.367331-28.002377 111.91171 111.91171 0 0 1 1.809234-27.545993 67.446935 67.446935 0 0 1 5.688492-18.434626 42.981529 42.981529 0 0 1 9.111367-13.039524 92.906604 92.906604 0 0 1 12.827631-10.38272 149.335142 149.335142 0 0 0 15.680027-12.094158 59.264634 59.264634 0 0 0 13.479608-17.635956c4.009653-7.530325 7.432528-15.288841 10.692409-23.096256q4.64533-13.854494 8.296397-28.018675a45.279745 45.279745 0 0 0 17.424063-9.926338 58.677855 58.677855 0 0 0 13.300314-17.635955c4.009653-7.530325 6.796852-17.50556 8.769079-30.186497a72.597547 72.597547 0 0 0-0.521581-24.449106 59.623221 59.623221 0 0 0-6.030779-16.299404 23.422244 23.422244 0 0 0-10.154529-10.773907 393.255727 393.255727 0 0 0-4.531235-72.22266 385.855797 385.855797 0 0 0-16.022314-65.425809 202.210409 202.210409 0 0 0-34.538438-63.665473 140.794254 140.794254 0 0 0-26.600628-24.823992 220.987323 220.987323 0 0 0-37.73312-22.020496A257.253498 257.253498 0 0 0 822.43534 94.552844l-0.749772-0.195593a201.933319 201.933319 0 0 0-51.033435-6.340468 274.41677 274.41677 0 0 0-43.437912 3.585869 200.482672 200.482672 0 0 0-88.196077 37.48863 161.820486 161.820486 0 0 0-24.758795 22.248687h-1.466946a197.499881 197.499881 0 0 0-14.441272 17.929344 201.65623 201.65623 0 0 0-27.986078 58.677856 422.969541 422.969541 0 0 0-10.65981 44.399577c0.423785 0.342287 0.863868 0.651976 1.303952 0.977964-0.961665 5.411402-1.809234 10.757607-2.46121 16.006015a424.795074 424.795074 0 0 0-3.716264 68.571594 68.979079 68.979079 0 0 0-11.034696 18.988806 80.421261 80.421261 0 0 0-5.052816 21.189225c-0.929066 8.035606 0.179293 17.179572 3.259881 27.497095a72.51605 72.51605 0 0 0 9.127666 20.912136v2.037426l0.325989 0.440084a82.491285 82.491285 0 0 0 11.963762 12.664637 40.944104 40.944104 0 0 0 12.892829 6.324168q4.38454 14.033787 9.176565 27.953479c1.189857 3.047989 2.444911 6.079678 3.732563 9.078768h1.466947q3.01539 7.057642 6.356767 13.95229a55.075687 55.075687 0 0 0 12.827631 17.635955q14.522769 11.621475 28.100173 24.36761c8.247499 7.758516 13.039523 18.939908 14.22938 33.36488 0.26079 4.058552 0.456383 7.954109 0.586779 11.735571q0.26079 7.057642 0.27709 13.593704a61.693245 61.693245 0 0 1-4.12375 22.525776 63.567677 63.567677 0 0 1-14.669463 21.743406c-7.090241 7.12284-17.016578 14.669464-29.84421 22.590974a191.958084 191.958084 0 0 1-51.799506 22.313884c-1.287653 0.358587-2.559006 0.733473-3.879259 1.075761q-31.800138 8.035606-61.660646 18.092339a169.790894 169.790894 0 0 0-52.027698 27.08961q-22.036795 17.114374-27.578592 50.528153-2.314515 14.343476-3.716265 27.382999v25.573765a28.686952 28.686952 0 0 1-2.118922 11.116194v9.779643a201.802924 201.802924 0 0 0 1.62994 20.863237c3.373977 24.693597 8.426792 39.346762 15.158446 44.269182 5.574396 4.156348 21.482615 9.062469 47.838752 14.832458s57.047915 11.295487 91.977538 16.641692q30.430988 4.889821 61.807341 8.720181 22.656172 2.852396 45.768727 5.313606c36.755157 3.879258 68.68569 5.932983 95.579707 5.932983 17.701153 0 38.776283-0.847569 62.932-2.787198s49.224201-4.058552 74.977259-7.253235 51.620213-6.389366 77.682961-10.382721 49.419794-8.149702 70.380828-12.599439A519.755403 519.755403 0 0 0 1100.209788 948.967616q21.596711-7.188037 26.242041-13.528506c4.237845-6.519762 7.546624-16.299404 9.632948-28.866245a239.421949 239.421949 0 0 0 3.259881-40.145432c0.032599-13.984889-0.782371-28.067574-2.184121-42.345853zM651.813177 151.470364c14.881356 0 24.791394 10.105631 24.791393 25.264076v75.759631c0 15.158446-9.910038 25.264077-24.791393 25.264077h-1.466947c14.881356 0 24.791394-10.105631 24.791394-25.264077v-75.759631c0-15.142147-9.910038-25.264077-24.791394-25.264076z m0 353.566677h-1.466947c14.881356 0 24.791394-10.105631 24.791394-25.247777v-75.759631c0-15.158446-9.910038-25.247777-24.791394-25.247777h1.466947c14.881356 0 24.791394 10.105631 24.791393 25.247777v75.759631c0 15.158446-9.910038 25.264077-24.791393 25.264077zM357.445936 875.066117a29.730113 29.730113 0 0 0 2.200419-11.523679V836.990708q-1.792934 16.511297-2.200419 30.968869z" fill="#1296db" p-id="6714"></path></svg>