<?xml version="1.0" standalone="no"?><!DOCTYPE svg PUBLIC "-//W3C//DTD SVG 1.1//EN" "http://www.w3.org/Graphics/SVG/1.1/DTD/svg11.dtd"><svg t="1614155879988" class="icon" viewBox="0 0 1365 1024" version="1.1" xmlns="http://www.w3.org/2000/svg" p-id="7510" xmlns:xlink="http://www.w3.org/1999/xlink" width="266.6015625" height="200"><defs><style type="text/css"></style></defs><path d="M1066.387948 656.228236h-175.831489a43.957872 43.957872 0 1 0 0 88.05226h175.831489a43.957872 43.957872 0 1 0 0-88.05226z m45.459539-191.121184h-219.789361a43.957872 43.957872 0 1 0 0 88.05226h219.789361a43.957872 43.957872 0 1 0 0-88.05226z m-222.724437-101.567257h175.831489a43.957872 43.957872 0 1 0 0-88.05226h-175.831489a43.957872 43.957872 0 1 0 0 88.05226z" fill="#1296db" p-id="7511"></path><path d="M331.868284 545.036662a195.899213 195.899213 0 1 1 268.593521 0 287.500867 287.500867 0 0 1 152.896947 253.713371 44.708706 44.708706 0 1 1-89.417411 0 197.94694 197.94694 0 0 0-197.742168-197.67391 197.94694 197.94694 0 0 0-197.67391 197.67391 44.708706 44.708706 0 1 1-89.417411 0c0-109.894681 61.97787-205.455273 152.760432-253.713371zM466.199173 294.463138c-59.520597 0-107.915211 48.394614-107.915211 107.915212s48.394614 107.915211 107.846954 107.915211c59.588855 0 107.983469-48.394614 107.983469-107.846954 0-59.588855-48.394614-107.983469-107.915212-107.983469z" fill="#1296db" p-id="7512"></path><path d="M1277.099053 0.136515H88.05226C39.452873 0.136515 0 38.360752 0 85.458472v853.219571c0 47.09772 39.452873 85.321957 88.05226 85.321957h1189.046793c48.599387 0 88.05226-38.224237 88.05226-85.321957v-853.219571c0.136515-47.09772-39.316358-85.321957-88.05226-85.321957z m0 938.541528H88.05226v-853.219571h1189.046793v853.219571z" fill="#1296db" p-id="7513"></path></svg>