<?xml version="1.0" standalone="no"?><!DOCTYPE svg PUBLIC "-//W3C//DTD SVG 1.1//EN" "http://www.w3.org/Graphics/SVG/1.1/DTD/svg11.dtd"><svg t="1614155383741" class="icon" viewBox="0 0 1024 1024" version="1.1" xmlns="http://www.w3.org/2000/svg" p-id="5758" xmlns:xlink="http://www.w3.org/1999/xlink" width="200" height="200"><defs><style type="text/css"></style></defs><path d="M538 583.4h13c7.2 0 13 5.8 13 13v208c0 7.2-5.8 13-13 13h-13c-7.2 0-13-5.8-13-13v-208c0-7.2 5.8-13 13-13z m-65 0h13c7.2 0 13 5.8 13 13v208c0 7.2-5.8 13-13 13h-13c-7.2 0-13-5.8-13-13v-208c0-7.2 5.8-13 13-13z m-299-377c-14.4 0-26 11.6-26 26 0 14.3 11.7 26 26 26 14.4 0 26-11.7 26-26s-11.6-26-26-26z m0 91.1c-35.9 0-65-29.1-65-65s29.1-65 65-65 65 29.1 65 65c0 35.8-29.1 65-65 65z m182 389.9l-143-78v-221s-3.7-26-39-26c-31.9 0-39 26-39 26v195s-2.2 20.2 13 26l195 91v156h13v-169z m39 13v156s-2.9 41.7-52 39c-37.6-2.1-39-39-39-39v-130l-169-78s-38.5-14.5-39-52v-221s17.9-51.3 78-52c62.3-0.7 78 52 78 52v208l117 65s25.1 8.9 26 52z m117-533.1c-14.4 0-26 11.6-26 25.9 0 14.3 11.7 25.9 26 25.9s26-11.6 26-25.9c0-14.3-11.6-25.9-26-25.9z m0 90.7c-35.9 0-65-29-65-64.8 0-35.7 29.1-64.7 65-64.7s65 29 65 64.7c0 35.8-29.1 64.8-65 64.8z m52 90.6s-2.3-26.7-52-25.9c-53.6 0.8-52 25.9-52 25.9v156.8h104V348.6z m143 195.9H317s-13-2.2-13-17.9c0-19.6 13-21.2 13-21.2h104V335.6s-0.5-51.3 91-51.8c83.9-0.5 91 51.8 91 51.8v169.8h104s13 5 13 19.1c0 13.2-13 20-13 20z m143-338.2c-14.4 0-26 11.6-26 25.9 0 14.3 11.6 25.9 26 25.9 14.3 0 26-11.6 26-25.9 0-14.3-11.7-25.9-26-25.9z m0 90.6c-35.9 0-65-29-65-64.7s29.1-64.7 65-64.7 65 29 65 64.7-29.1 64.7-65 64.7z m39 285V387.6s-7.1-25.9-38.9-25.9c-35.4 0-39 25.9-39 25.9v220.2l-143 77.7v168.4h13V698.5l195-90.6c15-5.9 12.9-26 12.9-26z m39 12.9c-0.5 37.4-39 51.8-39 51.8l-169 77.7v129.5s-1.4 36.8-39 38.8c-49.1 2.7-52-38.8-52-38.8V698.5c0.9-43 26-51.8 26-51.8L772 582V374.7s15.7-52.5 78-51.8c60.1 0.7 78 51.8 78 51.8v220.1z" p-id="5759" fill="#1296db"></path></svg>