<?xml version="1.0" standalone="no"?><!DOCTYPE svg PUBLIC "-//W3C//DTD SVG 1.1//EN" "http://www.w3.org/Graphics/SVG/1.1/DTD/svg11.dtd"><svg t="1614156336468" class="icon" viewBox="0 0 1028 1024" version="1.1" xmlns="http://www.w3.org/2000/svg" p-id="8305" xmlns:xlink="http://www.w3.org/1999/xlink" width="200.78125" height="200"><defs><style type="text/css"></style></defs><path d="M1007.897281 632.245643A509.875519 509.875519 0 0 0 757.208485 314.423237l-33.991702-16.995851a885.483817 885.483817 0 0 0-419.79751 0A463.136929 463.136929 0 0 0 1.742924 727.422407a465.686307 465.686307 0 0 0 12.746888 155.512033A190.353527 190.353527 0 0 0 200.594377 1019.751037h627.99668a183.555187 183.555187 0 0 0 156.361826-84.979253 205.649793 205.649793 0 0 0 36.541079-84.979253 509.875519 509.875519 0 0 0-10.197511-220.096265zM654.383588 820.049793h-84.979253v39.090456a53.536929 53.536929 0 1 1-106.224066 10.19751 50.987552 50.987552 0 0 1 0-10.19751v-38.240664h-84.979253a40.790041 40.790041 0 1 1 0-84.979253h84.979253v-37.390871h-84.979253a40.790041 40.790041 0 1 1 0-84.979254h79.030705v-5.098755L360.355373 517.523651c-11.897095-11.047303-7.648133-33.141909 8.497925-49.287966a39.940249 39.940249 0 0 1 51.837344-8.497926L511.618443 548.965975l84.979253-84.979253a43.339419 43.339419 0 0 1 57.785892 5.098755c16.995851 16.146058 25.493776 30.592531 8.497926 48.438174L568.554543 613.550207h84.979253a40.790041 40.790041 0 1 1 0 84.979254h-84.979253v36.541078h84.979253a40.790041 40.790041 0 1 1 0 84.979254z m-382.406639-575.309544a880.385062 880.385062 0 0 1 483.531951 0 203.100415 203.100415 0 0 0 24.643983-46.738589c5.948548-15.296266 8.497925-31.442324 13.59668-46.738589A84.979253 84.979253 0 0 0 766.556202 59.485477 123.219917 123.219917 0 0 0 632.288983 42.489627a6.79834 6.79834 0 0 1-8.497926 0 169.958506 169.958506 0 0 0-220.096265 0 6.79834 6.79834 0 0 1-8.497926 0 126.619087 126.619087 0 0 0-77.33112-8.497926 98.575934 98.575934 0 0 0-84.979253 107.923652 225.195021 225.195021 0 0 0 39.090456 102.824896z m0 0" fill="#1296db" p-id="8306"></path></svg>