<?xml version="1.0" standalone="no"?><!DOCTYPE svg PUBLIC "-//W3C//DTD SVG 1.1//EN" "http://www.w3.org/Graphics/SVG/1.1/DTD/svg11.dtd"><svg t="1614174696847" class="icon" viewBox="0 0 1024 1024" version="1.1" xmlns="http://www.w3.org/2000/svg" p-id="2126" xmlns:xlink="http://www.w3.org/1999/xlink" width="200" height="200"><defs><style type="text/css"></style></defs><path d="M512 964c-61 0-120.2-12-175.9-35.5-53.8-22.8-102.2-55.4-143.7-96.9s-74.1-89.8-96.9-143.7C72 632.2 60 573 60 512s12-120.2 35.5-175.9c22.8-53.8 55.4-102.2 96.9-143.7s89.8-74.1 143.7-96.9C391.8 72 451 60 512 60s120.2 12 175.9 35.5c53.8 22.8 102.2 55.4 143.7 96.9s74.1 89.8 96.9 143.7C952 391.8 964 451 964 512s-12 120.2-35.5 175.9c-22.8 53.8-55.4 102.2-96.9 143.7s-89.8 74.1-143.7 96.9C632.2 952 573 964 512 964z m0-844c-216.1 0-392 175.9-392 392s175.9 392 392 392 392-175.9 392-392-175.9-392-392-392z" fill="#333333" p-id="2127"></path><path d="M299.1 608.1c-53 0-96.1-43.1-96.1-96.1s43.1-96.1 96.1-96.1 96.1 43.1 96.1 96.1-43.1 96.1-96.1 96.1z m0-132.2c-19.9 0-36.1 16.2-36.1 36.1s16.2 36.1 36.1 36.1 36.1-16.2 36.1-36.1-16.2-36.1-36.1-36.1zM512 608.1c-53 0-96.1-43.1-96.1-96.1s43.1-96.1 96.1-96.1 96.1 43.1 96.1 96.1-43.1 96.1-96.1 96.1z m0-132.2c-19.9 0-36.1 16.2-36.1 36.1s16.2 36.1 36.1 36.1 36.1-16.2 36.1-36.1-16.2-36.1-36.1-36.1zM724.9 608.1c-53 0-96.1-43.1-96.1-96.1s43.1-96.1 96.1-96.1S821 459 821 512s-43.1 96.1-96.1 96.1z m0-132.2c-19.9 0-36.1 16.2-36.1 36.1s16.2 36.1 36.1 36.1S761 531.9 761 512s-16.2-36.1-36.1-36.1z" fill="#333333" p-id="2128"></path></svg>