<?xml version="1.0" standalone="no"?><!DOCTYPE svg PUBLIC "-//W3C//DTD SVG 1.1//EN" "http://www.w3.org/Graphics/SVG/1.1/DTD/svg11.dtd"><svg t="1614154686027" class="icon" viewBox="0 0 1083 1024" version="1.1" xmlns="http://www.w3.org/2000/svg" p-id="4261" xmlns:xlink="http://www.w3.org/1999/xlink" width="211.5234375" height="200"><defs><style type="text/css"></style></defs><path d="M852.752159 0.395765c27.696762 0 50.149351 22.689028 50.149352 50.677227v380.077502h-100.298703V120.959575H120.392576V861.906357h331.166476v101.353887H50.365945c-27.696762 0-50.149351-22.689028-50.149351-50.677227V51.072992C0.216594 23.084793 22.669183 0.395765 50.365945 0.395765h802.386214z m-37.038635 755.389945l-121.710281-50.680629V538.702813l121.710281-50.680062 121.710281 50.680062v166.402835l-121.710281 50.680062z m-146.052111 0l121.710281 50.680062v166.402268l-121.710281 50.680062-121.710281-50.680062v-166.402835l121.710281-50.679495z m413.81507 217.08233l-121.710281 50.680062-121.710282-50.680062v-166.402835l121.710282-50.679495 121.710281 50.680062v166.402268zM702.304673 304.457993H200.813998V203.104673h501.491242v101.353887zM200.813998 507.166334V405.812447h325.969364v101.353887H200.813431z" fill="#0B7BE3" p-id="4262"></path></svg>