<?xml version="1.0" standalone="no"?><!DOCTYPE svg PUBLIC "-//W3C//DTD SVG 1.1//EN" "http://www.w3.org/Graphics/SVG/1.1/DTD/svg11.dtd"><svg t="1614161330744" class="icon" viewBox="0 0 1024 1024" version="1.1" xmlns="http://www.w3.org/2000/svg" p-id="11035" xmlns:xlink="http://www.w3.org/1999/xlink" width="200" height="200"><defs><style type="text/css"></style></defs><path d="M697.7536 656.2304l10.1888-5.888 289.9968-249.5488c15.36-10.0352 24.7808-27.136 25.0368-45.7216a145.6128 145.6128 0 0 0-38.912-69.9392L739.328 32.768c-27.0336-29.0304-93.3888-45.312-114.0736-16.128L375.6544 317.7984a8.3968 8.3968 0 0 1-6.144 7.0144c-3.9936-1.1264-5.12 2.8672-9.216 1.7408L163.84 433.7152a60.8256 60.8256 0 0 0-32.4608 56.6784 686.7968 686.7968 0 0 1-17.408 233.1648A1697.536 1697.536 0 0 1 7.68 927.488a67.4304 67.4304 0 0 0-1.9456 56.1664 15.872 15.872 0 0 0 5.9392 10.24l8.9088 15.4112a38.2464 38.2464 0 0 0 19.0976 9.4208l12.032 3.2256c13.1584 3.2768 26.88 2.4064 39.68-2.3552 49.2032-21.6576 148.992-70.144 207.4112-93.7472a850.3296 850.3296 0 0 1 237.6704-28.3136 68.9152 68.9152 0 0 0 51.3536-29.7472l111.9232-202.9056a12.1856 12.1856 0 0 1-1.9968-8.6528z m-188.0576 152.064a682.4448 682.4448 0 0 0-228.1472 26.8288c-14.2336 5.12-22.272 13.1072-36.6592 18.0224l105.472-104.2944a46.6944 46.6944 0 0 0 25.6-13.1072c13.312-8.192 23.04-21.1968 26.9824-36.4544a81.7664 81.7664 0 0 0-15.7184-55.808 59.904 59.904 0 0 0-74.6496-12.288 54.272 54.272 0 0 0-27.0336 36.4544 31.3856 31.3856 0 0 0-8.192 14.4896L178.176 782.8992c9.4208-19.2512 18.2272-30.9248 27.7504-50.3296 19.456-71.0656 26.4192-145.152 20.48-218.624l165.0176-89.6 99.072 100.864 99.0208 100.9664-79.8208 182.1184z" p-id="11036" fill="#1296db"></path></svg>