<?xml version="1.0" standalone="no"?><!DOCTYPE svg PUBLIC "-//W3C//DTD SVG 1.1//EN" "http://www.w3.org/Graphics/SVG/1.1/DTD/svg11.dtd"><svg t="1614154424589" class="icon" viewBox="0 0 1024 1024" version="1.1" xmlns="http://www.w3.org/2000/svg" p-id="1871" xmlns:xlink="http://www.w3.org/1999/xlink" width="200" height="200"><defs><style type="text/css"></style></defs><path d="M128 128h768v768H128z" fill="#E4F1FE" p-id="1872"></path><path d="M0 0h1024v1024H0V0z m64 64v896h896V64H64z m263.744 291.84L440.96 242.816a32 32 0 1 1 45.248 45.248l-135.808 135.68a32 32 0 0 1-45.248 0L214.656 333.248A32 32 0 1 1 259.84 288l67.84 67.84h0.064zM608 256h192a32 32 0 1 1 0 64h-192a32 32 0 0 1 0-64z m0 384h192a32 32 0 1 1 0 64h-192a32 32 0 1 1 0-64z m0-256h192a32 32 0 1 1 0 64h-192a32 32 0 0 1 0-64z m0 384h192a32 32 0 1 1 0 64h-192a32 32 0 1 1 0-64zM320 832a128 128 0 1 1 0-256 128 128 0 0 1 0 256z m0-64a64 64 0 1 0 0-128 64 64 0 0 0 0 128z" fill="#007AF5" p-id="1873"></path></svg>