<?xml version="1.0" standalone="no"?><!DOCTYPE svg PUBLIC "-//W3C//DTD SVG 1.1//EN" "http://www.w3.org/Graphics/SVG/1.1/DTD/svg11.dtd"><svg t="1614154543011" class="icon" viewBox="0 0 1024 1024" version="1.1" xmlns="http://www.w3.org/2000/svg" p-id="2598" xmlns:xlink="http://www.w3.org/1999/xlink" width="200" height="200"><defs><style type="text/css"></style></defs><path d="M864.55241387 371.91219427c0 5.46240057 0.11380053 10.9248 0 16.38720058-0.22759993 8.19360085-1.13799965 16.27340117-1.93459997 24.46700088-1.13799965 11.03860053-3.07259961 21.96340053-5.23480064 32.77440228-2.38979982 11.83520085-5.57619997 23.32900125-9.33160049 34.7090011-8.64880071 26.74300131-20.37020103 52.12040192-35.05040157 76.13220295-7.16940061 11.60760093-14.90780046 22.87380139-23.32900011 33.57100146-11.60760093 14.79400107-24.12560043 28.67760128-38.00920178 41.42320071-15.24920093 14.11120014-31.63640149 26.85680071-49.0478023 38.12300231-19.34600078 12.40420011-39.60240128 22.98760078-60.99680256 31.52260096-14.22500067 5.6900005-28.67760128 10.46960014-43.47160122 14.22500068-15.13540039 3.86919993-30.49840071 6.48659968-46.08900209 8.53500017-20.71160035 2.73120029-41.42320185 2.50360035-62.13480221 1.82079944-10.12820082-0.34140046-20.2564005-1.82080057-30.38460131-3.18640014-13.31460096-1.82080057-26.51540139-4.55199971-39.48860075-8.07980032-16.15960064-4.32439979-31.97780082-9.78680035-47.34080228-16.38720058-21.16680135-9.10400057-41.19560192-20.02880057-60.20020224-32.88820053-23.67040057-16.04580011-44.83720192-34.7090011-64.06940216-55.76200305-17.29760029-19.00460032-32.31920128-39.83000121-45.06480185-62.13480221-13.31460096-23.10140131-23.7842011-47.45460167-31.52260096-72.94580281-4.66580025-15.47680085-8.30740025-31.29500103-10.69720121-47.22700174-1.02420025-6.82800014-1.70700003-13.65600029-2.50359922-20.59780096-1.02420025-9.90060089-1.47940011-19.91500117-1.82080057-29.92940032-0.22759993-7.39700053 0.22759993-14.90780046 0.56900039-22.304801 0.34140046-6.71420075 0.91039971-13.42840035 1.47940011-20.1426011 0.68279979-6.71420075 1.47940011-13.31460096 2.61739975-20.02880057 4.32439979-25.37740061 11.38000099-49.95820203 20.93920028-73.85620252 6.14520035-15.36300032 13.54220089-30.15700139 21.84960114-44.49580146 9.78680035-16.72860103 20.71160035-32.54680121 33.00200107-47.45460281 10.24200021-12.51800064 21.28060075-24.46700089 33.22960213-35.39180089 23.10140131-21.05300082 48.25120199-39.14720142 76.01840242-53.71360256 20.1426011-10.58340067 41.19560192-19.11840085 62.93140252-25.83260046 14.5664-4.43820032 29.4742016-7.85220039 44.609602-10.35580075 10.69720007-1.70700003 21.62200121-2.84499968 32.43300067-3.75539939 13.42840035-1.13799965 26.85680071-0.68279979 40.3990016-0.56900039 5.23480064 0 10.46960014 0.79660032 15.70440079 1.36559957 4.32439979 0.45519986 8.64880071 1.02420025 12.97320049 1.36560071 11.60760093 1.13799965 22.98760078 3.52780061 34.36760178 6.03139982 11.94900025 2.61739975 23.55660117 6.03139982 35.05040043 10.01440029 15.02160099 5.12100011 29.58800099 11.26620046 43.69920227 18.32180053 16.6148005 8.30740025 32.43300067 17.98040121 47.56840107 28.79140182 8.99020003 6.48659968 17.75280014 13.31460096 26.06020153 20.59780096 11.03860053 9.55920043 21.39440128 19.80120064 31.18120163 30.4984007 11.72140032 12.74560057 22.19100046 26.51540139 31.86400029 40.85420146a355.73881401 355.73881401 0 0 1 29.70180153 53.94120249c7.62460046 17.29760029 13.88360021 35.16420096 18.54940046 53.48600149 3.30020067 12.63180003 5.6900005 25.49120114 7.62460046 38.46440164 2.50360035 16.5010011 3.86919993 33.00200107 3.30020068 49.61680156z m-71.12500338 0.11380054c0-4.89340018 0.22759993-9.78680035 0-14.68020054-0.45519986-8.76260011-1.5931995-17.29760029-2.73120028-26.06020152-1.47940011-11.26620046-3.98300046-22.19100046-6.94179954-33.00200107-2.16219989-8.30740025-4.89340018-16.38720057-7.8522004-24.35320035-5.57619997-14.90780046-12.40420011-29.13280114-20.25640049-42.78880256-6.03139982-10.46960014-12.74560057-20.37020103-20.02880171-29.92940032-10.24200021-13.54220089-21.73580061-25.94640099-34.25380124-37.44020139-12.40420011-11.26620046-25.60500053-21.50820067-39.83000121-30.38460132-19.00460032-12.06280078-39.14720142-21.73580061-60.42780217-28.90520121-13.08700103-4.43820032-26.40160085-7.85220039-40.05760114-10.24200021-11.49380039-2.0484005-22.98760078-3.6416-34.5952017-4.09679986-4.55199971-0.11380053-9.10400057 0.11380053-13.65600029-0.79660032-1.70700003-0.34140046-3.6416 0.11380053-5.46240057 0.22759993-1.25180018 0.11380053-2.50360035 0.45519986-3.75540053 0.45519986-7.05560007 0-14.11120014 0.34140046-21.28060075 1.13799964-11.03860053 1.25180018-21.96340053 2.84499968-32.77440114 5.34860004-17.29760029 3.86919993-34.02620131 9.3316005-50.18580195 16.3872017-16.27340117 7.05560007-31.75020089 15.47680085-46.31660089 25.37740061-16.72860103 11.38000099-32.20540075 24.23940096-46.0890021 39.03340089-5.46240057 5.80379989-10.81100061 11.72140032-15.93200071 17.98040121-11.49380039 14.22500067-21.50820067 29.36040107-30.04320085 45.40620117-7.39700053 13.99740075-13.88360021 28.45000135-18.663201 43.58540174-4.55199971 14.22500067-8.30740025 28.56380075-10.46960014 43.47160235-1.70700003 11.38000099-3.18640014 22.64620032-3.30020068 34.14000071 0 0.91039971 0 1.82080057-0.22759992 2.73120028-0.91039971 4.32439979-0.79660032 8.76260011-0.34140047 13.08700104 0.79660032 7.73839986 0.56900039 15.59060025 1.59320064 23.44280064 1.02420025 7.39700053 1.70700003 14.79400107 3.18640015 22.07720106 2.0484005 10.58340067 4.66580025 20.93920029 7.73839985 31.1812005 3.75540053 12.51800064 8.42120078 24.80840135 13.99740075 36.6436022 7.2832 15.47680085 15.81820018 30.27080078 25.8326016 44.26820154 8.76260011 12.29040071 18.54940046 23.8980005 29.0190006 34.7090011 11.83520085 12.17660018 24.80840135 22.98760078 38.57820104 32.88820167 12.29040071 8.87640064 25.37740061 16.38720057 38.80580209 23.21520071 10.35580075 5.23480064 21.16680135 9.55920043 32.20540075 13.42840036 9.10400057 3.18640014 18.32180053 5.80379989 27.76720156 7.96599978 10.58340067 2.38979982 21.28060075 4.55199971 32.20540075 5.57619996 9.78680035 1.02420025 19.57360071 1.82080057 29.36040107 1.93460111 11.60760093 0.22759993 23.21520071-0.91039971 34.82280163-1.93460111 10.12820082-1.02420025 20.2564005-2.73120029 30.15700139-5.00719957 21.73580061-5.00720071 42.56120149-12.40420011 62.47620266-22.30480099 8.64880071-4.32439979 16.95620096-9.10400057 25.14980068-14.22500068 13.54220089-8.30740025 26.17400093-17.86660067 37.89540124-28.45000135 9.55920043-8.64880071 18.66320099-17.86660067 27.08440064-27.65340103 6.82800014-8.07980032 13.20080043-16.5010011 19.23220139-25.14980068 5.57619997-8.07980032 10.35580075-16.6148005 15.24920093-25.2636012 7.62460046-13.54220089 13.65600029-27.76720157 18.54940046-42.44740096 6.48659968-19.34600078 11.03860053-39.14720142 13.20080042-59.51740246 0.91039971-10.35580075 1.5931995-20.71160035 1.36559958-31.0674011zM511.20339968 761.22200974c7.05560007 0 14.22500067-0.45519986 21.28060075 0.1137994 7.96599979 0.68279979 15.93200071 0.56900039 23.89800163 1.36560071 6.71420075 0.68279979 13.42840035 1.25180018 20.14259997 1.70700004 5.57619997 0.34140046 11.26620046 1.13799965 16.72860103 2.16219989 3.98300046 0.79660032 7.96599979 1.02420025 11.83520085 1.70700003 6.82800014 1.02420025 13.54220089 2.38979982 20.3701999 3.6416 13.08700103 2.27600043 25.94640099 5.34860003 38.80580209 8.76260011 27.5396005 7.16940061 54.28260181 16.27340117 80.45660274 27.31200171 13.76980082 5.80379989 27.31200057 12.06280078 40.51280213 18.89080092 25.49120114 12.9732005 49.95820203 27.76720157 73.17340274 44.38200092 9.55920043 6.94180067 19.11840085 13.99740075 28.33620082 21.28060075 7.73839986 6.03139982 15.13540039 12.51800064 22.53240092 19.00460146 13.42840035 11.49380039 25.71880107 24.23940096 38.12300118 36.64360107 4.32439979 4.32439979 7.73839986 9.21779997 9.10400056 15.24920092 2.73120029 12.06280078 0.68279979 23.21520071-7.73839985 32.54680121-5.23480064 5.80379989-11.26620046 10.24200021-19.11840085 12.06279965-11.26620046 2.61739975-21.62200121 0.34140046-31.06740111-6.14520036-2.95880021-2.0484005-5.46240057-4.66580025-7.96600092-7.3969994-6.03139982-6.60040021-12.29040071-12.9732005-18.89080093-18.89080092-5.34860003-4.66580025-10.46960014-9.67299982-15.70439964-14.33880121-11.49380039-10.12820082-23.32900125-19.68740125-35.73320249-28.67760014-10.58340067-7.73839986-21.39440128-15.02160099-32.54680121-21.96340167-19.00460032-11.94900025-38.80580096-22.41860039-59.06220146-31.75020089-23.67040057-10.81100061-48.13740146-19.68740125-73.17340274-26.74300132-17.18380089-4.89340018-34.48140117-8.87640064-52.12040192-11.60759979-7.85220039-1.25180018-15.70440078-2.73120029-23.6704017-3.86919992-5.34860003-0.79660032-10.9248-0.91039971-16.27340004-1.59320064-9.21779997-1.25180018-18.43560107-1.36559957-27.76720156-2.0484005-10.35580075-0.79660032-20.71160035-1.02420025-31.0674011-0.79659918-9.44539989 0.22759993-18.89080093 0.56900039-28.33620082 1.4794001-1.13799965 0.11380053-2.16219989 0.11380053-3.30020068 0.22759993-8.19360085 0.11380053-16.27340117 1.25180018-24.46700088 2.16219989-8.07980032 0.91039971-16.27340117 2.0484005-24.35320036 3.30019954-10.58340067 1.70700003-21.05300082 3.75540053-31.52260096 6.03140096-14.90780046 3.30020067-29.70180153 7.2832-44.15440214 11.94900025-12.06280078 3.86919993-24.12560043 8.19360085-35.84700074 13.08699989-14.68020053 6.03139982-29.01900061 12.51800064-43.13020188 19.68740125-24.46700089 12.51800064-47.79600213 27.08440064-69.9870026 43.24400128-11.38000099 8.19360085-22.19100046 17.07000035-33.00200107 26.06020153-6.25899975 5.23480064-12.17660018 10.9248-18.20800113 16.50099996-5.46240057 5.12100011-10.81100061 10.24200021-16.15960064 15.47680086-1.5931995 1.47940011-2.95880021 3.18640014-4.43820032 4.89340018-5.57619997 6.03139982-12.06280078 10.81100061-20.14260111 12.2904007-11.15239993 2.0484005-21.96340053 0.56900039-30.83980117-7.1694006-7.39700053-6.48659968-11.83520085-14.68020053-11.94900025-24.80840021 0-3.30020067-0.34140046-6.60040021 0.45519986-9.78680036 1.47940011-6.48659968 4.66580025-12.17660018 9.10400057-17.18380089 10.01440029-11.38000099 21.16680135-21.50820067 32.31920128-31.75020088 26.17400093-24.12560043 54.39640235-45.63380224 84.3258038-64.63840256 19.68740125-12.51800064 40.05760114-23.7842011 61.11060196-33.79860139 16.04580011-7.73839986 32.54680121-14.5664 49.1616017-20.82540089 12.63180003-4.77959965 25.37740061-8.99020003 38.23680171-12.8594011 13.08700103-3.86919993 26.28780146-7.39700053 39.60240128-10.24200022 11.03860053-2.38979982 22.07720107-4.55199971 33.1158016-6.48659968 8.42120078-1.47940011 16.95620096-2.38979982 25.37740061-3.5278006 8.87640064-1.13799965 17.75280014-1.82080057 26.62920078-2.61739975 6.48659968-0.56900039 13.08700103-0.56900039 19.57360071-1.13800079 9.21779997-0.79660032 18.32180053-0.79660032 27.4258011-0.56899925z" fill="#1296db" p-id="2599"></path></svg>