<?xml version="1.0" standalone="no"?><!DOCTYPE svg PUBLIC "-//W3C//DTD SVG 1.1//EN" "http://www.w3.org/Graphics/SVG/1.1/DTD/svg11.dtd"><svg t="1614161192897" class="icon" viewBox="0 0 1024 1024" version="1.1" xmlns="http://www.w3.org/2000/svg" p-id="10898" xmlns:xlink="http://www.w3.org/1999/xlink" width="200" height="200"><defs><style type="text/css"></style></defs><path d="M647.253333 194.346667c-6.826667 0-12.586667-2.346667-17.706666-7.04-5.12-4.693333-9.173333-10.453333-12.586667-17.066667-3.2-6.826667-5.76-13.653333-7.466667-20.906667-1.706667-7.04-2.56-13.013333-2.56-17.706666V6.613333h2.133334c5.333333 0 10.88 0.853333 16.64 2.56 5.76 1.706667 12.373333 4.906667 20.266666 9.6 7.68 4.693333 17.066667 11.52 28.373334 20.693334 11.093333 9.173333 25.173333 21.12 42.026666 35.84 18.133333 16.213333 32.426667 29.866667 42.88 41.386666 10.453333 11.52 18.56 21.12 24.32 28.8 5.76 7.68 9.173333 14.293333 10.666667 19.626667 1.28 5.333333 1.92 10.026667 1.92 14.08v15.146667h-148.906667z m0 0" fill="#4192FA" p-id="10899"></path><path d="M648.32 258.986667c-18.133333 0-33.92-4.053333-47.36-12.16-13.44-8.106667-24.533333-18.56-33.28-31.36-8.746667-12.8-15.146667-26.453333-19.2-40.96-4.053333-14.506667-5.973333-28.373333-5.973333-41.813334V6.613333H155.52c-15.573333 0-30.293333 4.266667-44.373333 12.586667-14.293333 8.32-26.666667 18.986667-37.546667 31.786667s-19.626667 26.666667-26.24 41.813333c-6.826667 15.146667-10.026667 29.866667-10.026667 43.946667V825.6c0 16.853333 4.48 33.066667 13.226667 48.426667 8.746667 15.573333 19.626667 29.226667 32.853333 41.386666 13.226667 12.16 27.306667 21.973333 42.453334 29.226667 15.146667 7.466667 29.013333 11.093333 41.813333 11.093333h357.546667c-15.573333-23.466667-27.52-48.853333-36.266667-75.733333-8.746667-26.88-13.226667-55.466667-13.226667-85.76v-15.146667c0-4.693333 0.426667-9.386667 1.066667-14.08h-249.6c-17.493333 0-32.426667-6.186667-45.013333-18.773333-12.373333-12.373333-18.773333-27.52-18.773334-45.013333 0-17.493333 6.186667-32.213333 18.773334-44.373334 12.373333-12.16 27.52-18.133333 45.013333-18.133333h293.973333a285.226667 285.226667 0 0 1 100.906667-94.933333c41.813333-23.466667 87.893333-35.413333 138.453333-35.413334h18.133334c5.973333 0 11.733333 0.64 17.066666 1.92V258.986667h-147.413333z m2.133333 234.24c-12.16 12.16-26.88 18.133333-44.373333 18.133333H227.2c-17.493333 0-32.426667-5.973333-45.013333-18.133333-12.373333-12.16-18.773333-26.88-18.773334-44.373334 0-17.493333 6.186667-32.426667 18.773334-45.013333 12.373333-12.373333 27.52-18.773333 45.013333-18.773333H605.866667c17.493333 0 32.213333 6.186667 44.373333 18.773333 12.16 12.373333 18.133333 27.52 18.133333 45.013333 0.213333 17.493333-5.973333 32.426667-17.92 44.373334z m0 0" fill="#4192FA" p-id="10900"></path><path d="M969.6 708.48a220.373333 220.373333 0 0 0-47.573333-70.613333 218.666667 218.666667 0 0 0-70.613334-47.36c-26.88-11.52-55.893333-17.066667-86.826666-17.066667-30.293333 0-58.88 5.76-85.76 17.066667-26.88 11.52-50.56 27.306667-70.613334 47.36-20.266667 20.266667-36.266667 43.733333-48 70.613333-11.733333 26.88-17.706667 55.893333-17.706666 86.826667 0 30.933333 5.973333 59.946667 17.706666 86.826666a225.066667 225.066667 0 0 0 118.613334 118.186667c26.88 11.52 55.466667 17.066667 85.76 17.066667 30.933333 0 59.946667-5.76 86.826666-17.066667a220.373333 220.373333 0 0 0 70.613334-47.573333c20.266667-20.266667 36.053333-43.733333 47.573333-70.613334 11.52-26.88 17.066667-55.893333 17.066667-86.826666 0-30.933333-5.76-59.946667-17.066667-86.826667z m-62.506667 86.826667l-120.106666 121.813333V825.6h-134.4c-8.106667 0-15.573333-3.413333-20.906667-8.746667-5.333333-5.333333-8.746667-12.8-8.746667-20.906666 0-16.213333 13.226667-29.44 29.44-29.44h134.4v-93.226667l120.32 122.026667z m0 0" fill="#4192FA" p-id="10901"></path></svg>