<?xml version="1.0" standalone="no"?><!DOCTYPE svg PUBLIC "-//W3C//DTD SVG 1.1//EN" "http://www.w3.org/Graphics/SVG/1.1/DTD/svg11.dtd"><svg t="1614161747099" class="icon" viewBox="0 0 1024 1024" version="1.1" xmlns="http://www.w3.org/2000/svg" p-id="14424" xmlns:xlink="http://www.w3.org/1999/xlink" width="200" height="200"><defs><style type="text/css"></style></defs><path d="M554.666667 597.333333a213.333333 213.333333 0 0 1 213.333333 213.333334v85.333333a42.666667 42.666667 0 0 1-85.333333 0v-85.333333a128 128 0 0 0-128-128H213.333333a128 128 0 0 0-128 128v85.333333a42.666667 42.666667 0 0 1-85.333333 0v-85.333333a213.333333 213.333333 0 0 1 213.333333-213.333334z m257.365333 37.546667a42.666667 42.666667 0 0 1 51.968-30.634667A213.333333 213.333333 0 0 1 1024 810.666667v85.333333a42.666667 42.666667 0 0 1-85.333333 0v-85.333333a128 128 0 0 0-96-123.818667 42.666667 42.666667 0 0 1-30.634667-51.968zM384 85.333333a213.333333 213.333333 0 1 1 0 426.666667A213.333333 213.333333 0 0 1 384 85.333333z m257.322667 37.632a42.666667 42.666667 0 0 1 51.925333-30.72 213.333333 213.333333 0 0 1 0 413.312 42.666667 42.666667 0 0 1-21.162667-82.688 128 128 0 0 0 0-247.978666 42.666667 42.666667 0 0 1-30.72-51.925334zM384 170.666667a128 128 0 1 0 0 256 128 128 0 0 0 0-256z" p-id="14425" fill="#1296db"></path></svg>