<?xml version="1.0" standalone="no"?><!DOCTYPE svg PUBLIC "-//W3C//DTD SVG 1.1//EN" "http://www.w3.org/Graphics/SVG/1.1/DTD/svg11.dtd"><svg t="1614161686088" class="icon" viewBox="0 0 1024 1024" version="1.1" xmlns="http://www.w3.org/2000/svg" p-id="13591" xmlns:xlink="http://www.w3.org/1999/xlink" width="200" height="200"><defs><style type="text/css"></style></defs><path d="M751.285112 314.537996c-14.493971-8.282269-29.740876-15.246905-44.799547-22.77624a108.987133 108.987133 0 0 1 8.094036-8.094036 230.962371 230.962371 0 0 0 61.364086-85.834426 356.325809 356.325809 0 0 0 11.294003-37.646678c7.717569-47.246581-1.1294-75.293356-29.552642-99.763697a118.022336 118.022336 0 0 0-128.563406-17.317472c-3.199968 1.317634-5.270535 2.258801-8.470503 0a160.563083 160.563083 0 0 0-214.962532-1.317634 6.399935 6.399935 0 0 1-8.470503 1.505867 120.281137 120.281137 0 0 0-75.293356-7.905802A97.881363 97.881363 0 0 0 238.537355 142.11621a227.57417 227.57417 0 0 0 58.917052 128.18694c6.776402 7.529336 13.929271 14.682204 21.270373 22.21154l-5.458768 2.635267a512.747757 512.747757 0 0 0-298.161692 432.936799A381.737317 381.737317 0 0 0 27.715957 882.814604c25.599741 79.434491 94.116696 141.363277 179.951122 141.175043h612.699688A177.880555 177.880555 0 0 0 972.64758 941.166955a244.703408 244.703408 0 0 0 32.376144-89.410861c2.823501-12.799871 6.211702 12.423404 6.211701-42.164279a707.381083 707.381083 0 0 0-16.564538-178.257022 507.100755 507.100755 0 0 0-244.703408-317.54973zM959.471243 814.674116a207.05673 207.05673 0 0 1-25.787975 84.32856 186.727524 186.727524 0 0 1-152.280813 75.293356H240.231456c-76.422757 0-148.704379-42.352513-167.339485-116.328236a529.124062 529.124062 0 0 1-7.152869-153.22198c11.858704-172.986486 168.280652-335.996603 318.490898-406.019424 1.505867 0-43.29368-40.093712-49.317148-46.870115a180.892289 180.892289 0 0 1-53.27005-105.410699c-6.964635-55.152384 34.258477-71.152222 59.105285-76.61099s71.905155 18.823339 75.293356 17.317472a137.975076 137.975076 0 0 1 189.739258 1.1294c2.823501 2.635267 4.705835 1.882334 7.529336 0 40.658412-17.317472 75.293356-28.046775 109.3636 1.505868 25.035041 21.835073 25.787975 37.646678 18.823339 72.281622a321.502632 321.502632 0 0 1-35.952578 64.187586A523.100594 523.100594 0 0 1 638.156844 301.173426s70.963988 32.376143 82.069759 41.411346C829.213736 425.595697 902.436525 489.406817 935.000902 615.899655c17.317472 66.446387 34.070244 131.763374 23.717407 198.774461zM447.099953 459.665941l-33.882011-35.011411h-50.070082v22.21154c0 5.082302 124.610505 127.622239 124.610505 127.622239h-124.610505v49.881849h124.798738v50.258315h-124.610504v49.693616h124.798738v99.95193h49.881848v-99.95193h125.363439v-49.881849h-125.363439v-50.070082h125.175205v-49.881849h-125.551671l125.175205-127.622239v-22.21154h-49.881849s-43.29368 41.976046-52.893583 52.517116c-3.952901 3.199968-32.75261 34.070244-47.058348 48.187748z" fill="#1296db" p-id="13592"></path></svg>