<?xml version="1.0" standalone="no"?><!DOCTYPE svg PUBLIC "-//W3C//DTD SVG 1.1//EN" "http://www.w3.org/Graphics/SVG/1.1/DTD/svg11.dtd"><svg t="1614161494389" class="icon" viewBox="0 0 1024 1024" version="1.1" xmlns="http://www.w3.org/2000/svg" p-id="11845" xmlns:xlink="http://www.w3.org/1999/xlink" width="200" height="200"><defs><style type="text/css"></style></defs><path d="M239.296 348.074667H544a43.52 43.52 0 0 1 0 87.04H239.296a43.52 43.52 0 0 1 0-87.04z m0-152.362667h108.8a43.52 43.52 0 0 1 0 87.04h-108.8a43.52 43.52 0 0 1 0-87.04z m500.586667 174.122667V195.712a65.28 65.28 0 0 0-65.28-65.28H195.733333a65.28 65.28 0 0 0-65.28 65.28V739.84a65.28 65.28 0 0 0 65.28 65.28h174.122667a43.52 43.52 0 0 1 0 87.082667H173.994667A130.581333 130.581333 0 0 1 43.392 761.6V173.952c0-72.128 58.474667-130.602667 130.602667-130.602667h522.368c72.106667 0 130.581333 58.453333 130.581333 130.602667v195.882667a43.52 43.52 0 0 1-87.04 0z" p-id="11846" fill="#1296db"></path><path d="M615.04 459.456L416.938667 655.018667a38.741333 38.741333 0 0 0 0 55.296l198.101333 195.562666c15.466667 15.274667 40.533333 15.274667 56.021333 0a38.762667 38.762667 0 0 0 0-55.296L540.586667 721.770667h379.797333c21.888 0 39.616-17.493333 39.616-39.104a39.36 39.36 0 0 0-39.616-39.104H540.586667l130.474666-128.810667a38.741333 38.741333 0 0 0 0-55.296 39.978667 39.978667 0 0 0-56.021333 0z" p-id="11847" fill="#1296db"></path></svg>