<?xml version="1.0" standalone="no"?><!DOCTYPE svg PUBLIC "-//W3C//DTD SVG 1.1//EN" "http://www.w3.org/Graphics/SVG/1.1/DTD/svg11.dtd"><svg t="1614161617000" class="icon" viewBox="0 0 1024 1024" version="1.1" xmlns="http://www.w3.org/2000/svg" p-id="12800" xmlns:xlink="http://www.w3.org/1999/xlink" width="200" height="200"><defs><style type="text/css"></style></defs><path d="M57.23022222 121.74222222v658.77333333h910.22222223V121.74222222h-910.22222223z m822.95466667 391.168c0 14.10844445-11.37777778 25.48622222-25.48622222 25.48622223-14.10844445 0-25.48622222-11.37777778-25.48622222-25.48622223V360.10666667c-275.34222222 265.44355555-279.89333333 268.40177778-282.28266667 269.99466666-4.77866667 3.18577778-9.44355555 4.43733333-13.88088889 4.43733334-11.264 0-20.59377778-8.30577778-26.39644444-13.42577778-5.46133333-4.77866667-12.74311111-11.60533333-22.18666667-20.82133334-15.47377778-15.01866667-36.75022222-36.18133333-63.03288889-62.80533333-27.42044445-27.76177778-54.84088889-55.97866667-72.02133334-73.728l-169.52888888 163.38488889c-10.12622222 9.78488889-26.28266667 9.44355555-36.06755556-0.68266666-9.78488889-10.12622222-9.44355555-26.28266667 0.68266667-36.06755556l187.84711111-181.13422222c4.89244445-4.66488889 11.264-7.39555555 18.09066666-7.168 6.71288889 0.11377778 13.19822222 2.95822222 17.86311112 7.73688888 63.26044445 65.64977778 133.34755555 136.76088889 163.38488888 164.97777778C575.94311111 532.82133333 705.30844445 408.46222222 795.07911111 321.99111111c0.45511111-0.45511111 0.91022222-0.68266667 1.36533334-1.024H637.61066667c-14.10844445 0-25.48622222-11.37777778-25.48622222-25.48622222 0-14.10844445 11.37777778-25.48622222 25.48622222-25.48622222h217.20177778c14.10844445 0 25.48622222 11.37777778 25.48622222 25.48622222v217.42933333z" fill="#1296db" p-id="12801"></path><path d="M829.32622222 321.42222222v-0.22755555h-0.22755555z" fill="#1296db" p-id="12802"></path><path d="M901.91644445 78.73422222H125.61066667c-61.21244445 0-111.04711111 49.83466667-111.04711112 111.04711111V717.93777778c0 61.21244445 49.83466667 111.04711111 111.04711112 111.04711111h776.30577778c61.21244445 0 111.04711111-49.83466667 111.0471111-111.04711111V189.78133333c0-61.21244445-49.83466667-111.04711111-111.0471111-111.04711111z m60.07466666 639.08977778c0 33.10933333-26.96533333 60.07466667-60.07466666 60.07466667H125.61066667c-33.10933333 0-60.07466667-26.96533333-60.07466667-60.07466667V189.78133333c0-33.10933333 26.96533333-60.07466667 60.07466667-60.07466666h776.30577778c33.10933333 0 60.07466667 26.96533333 60.07466666 60.07466666v528.04266667zM798.03733333 894.86222222h-573.44c-14.10844445 0-25.48622222 11.37777778-25.48622222 25.48622223 0 14.10844445 11.37777778 25.48622222 25.48622222 25.48622222h573.44c14.10844445 0 25.48622222-11.37777778 25.48622222-25.48622222 0-14.10844445-11.49155555-25.48622222-25.48622222-25.48622223z m0 0" fill="#1296db" p-id="12803"></path></svg>