<?xml version="1.0" standalone="no"?><!DOCTYPE svg PUBLIC "-//W3C//DTD SVG 1.1//EN" "http://www.w3.org/Graphics/SVG/1.1/DTD/svg11.dtd"><svg t="1614161851020" class="icon" viewBox="0 0 1024 1024" version="1.1" xmlns="http://www.w3.org/2000/svg" p-id="15963" xmlns:xlink="http://www.w3.org/1999/xlink" width="200" height="200"><defs><style type="text/css"></style></defs><path d="M618.409 431.77a342.528 342.528 0 0 1 134.195-27.188c4.608 0 9.19 0.205 13.798 0.205 21.812-55.193 27.392-120.371 16.41-183.757C757.417 75.674 620.2-21.504 476.022 4.096c-144 25.6-265.6 137.574-240 282.931 5.401 31.386 20.608 80.384 38.604 115.763L13.02 780.083c-9.6 13.799-15.206 38.81-12.211 55.808L12.2 900.454c-10.803-62.182 2.995 22.4 11.392 22.196l86.195 1.203c16.589-2.995 37.402-16.999 46.592-31.207l103.398-161.74 0.999-0.999 90.393 7.194L471.95 547.763c0.41 0 0.82 0.205 1.203 0.205 10.804-14.797 22.605-28.8 35.79-42.01a337.843 337.843 0 0 1 109.465-74.188zM69.622 819.866l-12.8 5.401 1.408-14.003 250.598-363.7 15.002 14.004L69.622 819.866z m380.8-669.21c39.603-56.986 117.58-71.194 173.977-30.976a127.232 127.232 0 0 1 30.797 175.949c-39.603 56.985-80 16.793-136.602-23.194-56.37-40.192-107.776-64.589-68.172-121.779z m0 0" p-id="15964" fill="#1296db"></path><path d="M749.225 474.573c-151.808 0-274.79 122.957-274.79 274.739 0 151.757 122.982 274.688 274.79 274.688s274.79-122.957 274.79-274.688c0-151.782-123.008-274.74-274.79-274.74z m158.797 387.481c0 41.012-78.592 50.407-152.397 50.407s-153.395-9.395-153.395-50.407v-11.366c0-30.208 54.4-60.8 100.608-77.389 3.404-1.203 19.404-10.01 10.393-33.382-22.989-23.399-40.192-61.389-40.192-98.765 0-57.19 37.811-87.168 82.202-87.168 44.21 0 82.406 29.978 82.406 87.168 0 37.197-17.408 74.982-40.192 98.586h0.205c-8.806 26.572 5.197 32.972 7.398 33.587 48.59 16 103.194 46.413 103.194 77.389l-0.23 11.34z m0 0" p-id="15965" fill="#1296db"></path></svg>