<?xml version="1.0" standalone="no"?><!DOCTYPE svg PUBLIC "-//W3C//DTD SVG 1.1//EN" "http://www.w3.org/Graphics/SVG/1.1/DTD/svg11.dtd"><svg t="1614161814832" class="icon" viewBox="0 0 1025 1024" version="1.1" xmlns="http://www.w3.org/2000/svg" p-id="15201" xmlns:xlink="http://www.w3.org/1999/xlink" width="200.1953125" height="200"><defs><style type="text/css"></style></defs><path d="M938.4 1024H85.6c-48 0-85.6-36.8-85.6-85.6V84.8C0 36.8 36.8 0 85.6 0h853.6c48 0 85.6 36.8 85.6 85.6v853.6c-0.8 44.8-37.6 84.8-86.4 84.8z" fill="#398DEE" p-id="15202"></path><path d="M799.2 495.2c0-41.6 27.2-77.6 62.4-92.8-8.8-36-24-65.6-38.4-95.2-36 15.2-80.8 8.8-110.4-20.8-29.6-29.6-36-74.4-20.8-110.4-29.6-17.6-62.4-29.6-98.4-38.4-15.2 36-50.4 62.4-92.8 62.4-41.6 0-77.6-27.2-92.8-62.4-36 8.8-65.6 24-95.2 38.4 15.2 36 8.8 80.8-20.8 110.4-29.6 29.6-74.4 36-110.4 20.8-17.6 29.6-32.8 62.4-38.4 95.2 36 15.2 62.4 50.4 62.4 92.8s-27.2 77.6-62.4 92.8c8.8 36 24 65.6 38.4 95.2 36-15.2 80.8-8.8 110.4 20.8s36 74.4 20.8 110.4c29.6 17.6 62.4 32.8 98.4 38.4 15.2-36 50.4-62.4 92.8-62.4 41.6 0 77.6 27.2 92.8 62.4 36-8.8 65.6-24 95.2-38.4-15.2-36-8.8-80.8 20.8-110.4s74.4-36 110.4-20.8c17.6-29.6 32.8-62.4 38.4-95.2-36-15.2-62.4-50.4-62.4-92.8zM504 593.6c-53.6 0-98.4-44.8-98.4-98.4s44.8-98.4 98.4-98.4 98.4 44.8 98.4 98.4-44.8 98.4-98.4 98.4z" fill="#FFFFFF" p-id="15203"></path></svg>