<?xml version="1.0" standalone="no"?><!DOCTYPE svg PUBLIC "-//W3C//DTD SVG 1.1//EN" "http://www.w3.org/Graphics/SVG/1.1/DTD/svg11.dtd"><svg t="1614161883903" class="icon" viewBox="0 0 1236 1024" version="1.1" xmlns="http://www.w3.org/2000/svg" p-id="16751" xmlns:xlink="http://www.w3.org/1999/xlink" width="241.40625" height="200"><defs><style type="text/css"></style></defs><path d="M931.206354 202.860645V125.871077A125.871077 125.871077 0 0 0 805.335277 0H125.872615A125.871077 125.871077 0 0 0 0 125.871077v469.205887a125.871077 125.871077 0 0 0 125.871077 125.871077h77.769323a55.281029 55.281029 0 0 1 47.874134 27.640515l29.3692 50.867036a27.479027 27.479027 0 0 0 47.594222 0l29.369201-50.867036a55.281029 55.281029 0 0 1 47.874134-27.640515v-392.214781a125.871077 125.871077 0 0 1 125.872615-125.872615zM238.77086 494.371797q-120.977236-2.737598-124.599171-143.147167 2.809883-143.483985 123.780967-148.425504 119.35467 2.742212 126.083318 97.344688l-67.743253 0.190709q-3.392776-50.368732-58.215488-53.26628-53.215527 3.226675-56.16229 103.967215 3.495821 100.74054 56.739031 102.121644 54.811946-1.657939 57.917121-53.595407l67.744791-0.190709q-6.204197 93.152164-125.545026 95.000811z" fill="#1296db" p-id="16752"></path><path d="M1110.849705 241.90218H587.806949a125.871077 125.871077 0 0 0-125.871077 125.871077v430.164352a125.871077 125.871077 0 0 0 125.871077 125.871078h10.387494a80.030148 80.030148 0 0 1 69.307375 40.015074l28.927801 50.102662a20.147493 20.147493 0 0 0 34.893612 0l28.927801-50.102662a80.030148 80.030148 0 0 1 69.308913-40.015074H1110.849705a125.871077 125.871077 0 0 0 125.871077-125.871078V367.773257a125.871077 125.871077 0 0 0-125.872615-125.871077zM799.141845 713.621121H619.603076V452.088208h175.298568v43.824642h-118.750246v60.788523h110.269843v43.82618h-110.269843v69.270464h122.991985z m279.911733 0h-80.580744l-101.786364-217.708271-1.4134 1.414938V713.621121h-52.306583V452.088208h83.406007l98.959563 206.399529 1.414938-1.414938V452.088208h52.306583z" fill="#1296db" p-id="16753"></path></svg>